  0
SECTION
  2
HEADER
  9
$ANGBASE
  50
0.0
  9
$ANGDIR
  70
1
  9
$MEASUREMENT
  70
0
  0
ENDSEC
  0
SECTION
  2
TABLES
  0
TABLE
  2
LTYPE
  70
4
  0
LTYPE
  5
40F
  2
CONTINUOUS
  70
0
  3
Solid line
  72
65
  73
0
  40
0.0
  0
LTYPE
  5
410
  2
DASHDOT
 70
0
  3
Dash Dot ____ _ ____ _
 72
65
 73
4
 40
2.0
 49
1.25
 49
-0.25
 49
0.25
 49
-0.25
  0
LTYPE
  5
411
  2
DASHED
 70
0
  3
Dashed __ __ __ __ __
 72
65
 73
2
 40
0.75
 49
0.5
 49
-0.25
  0
LTYPE
  5
43B
  2
DOTTED
 70
0
  3
Dotted .  .  .  .
 72
65
 73
2
 40
0.2
 49
0.0
 49
-0.2
  0
ENDTAB
  0
TABLE
  2
STYLE
  70
4
  0
STYLE
  2
KICAD
  70
0
  40
0
  41
1
  42
1
  50
0
  71
0
  3
isocp.shx
  0
STYLE
  2
KICADB
  70
0
  40
0
  41
1
  42
1
  50
0
  71
0
  3
isocp.shx
  0
STYLE
  2
KICADI
  70
0
  40
0
  41
1
  42
1
  50
15
  71
0
  3
isocp.shx
  0
STYLE
  2
KICADBI
  70
0
  40
0
  41
1
  42
1
  50
15
  71
0
  3
isocp.shx
  0
ENDTAB
  0
TABLE
  2
LAYER
  70
1
  0
LAYER
  2
BLACK
  70
0
  62
7
  6
CONTINUOUS
  0
ENDTAB
  0
ENDSEC
  0
SECTION
  2
ENTITIES
0
LINE
8
BLACK
6
CONTINUOUS
10
3.33309
20
-1.3398
11
3.31988
21
-1.33757
0
LINE
8
BLACK
6
CONTINUOUS
10
3.31988
20
-1.33757
11
3.30701
21
-1.33389
0
LINE
8
BLACK
6
CONTINUOUS
10
3.30701
20
-1.33389
11
3.29462
21
-1.32879
0
LINE
8
BLACK
6
CONTINUOUS
10
3.29462
20
-1.32879
11
3.28289
21
-1.32234
0
LINE
8
BLACK
6
CONTINUOUS
10
3.28289
20
-1.32234
11
3.27194
21
-1.31463
0
LINE
8
BLACK
6
CONTINUOUS
10
3.27194
20
-1.31463
11
3.26192
21
-1.30575
0
LINE
8
BLACK
6
CONTINUOUS
10
3.26192
20
-1.30575
11
3.25295
21
-1.2958
0
LINE
8
BLACK
6
CONTINUOUS
10
3.25295
20
-1.2958
11
3.24514
21
-1.28492
0
LINE
8
BLACK
6
CONTINUOUS
10
3.24514
20
-1.28492
11
3.23859
21
-1.27324
0
LINE
8
BLACK
6
CONTINUOUS
10
3.23859
20
-1.27324
11
3.23339
21
-1.2609
0
LINE
8
BLACK
6
CONTINUOUS
10
3.23339
20
-1.2609
11
3.22959
21
-1.24806
0
LINE
8
BLACK
6
CONTINUOUS
10
3.22959
20
-1.24806
11
3.22724
21
-1.23488
0
LINE
8
BLACK
6
CONTINUOUS
10
3.22724
20
-1.23488
11
3.22638
21
-1.22151
0
LINE
8
BLACK
6
CONTINUOUS
10
3.22638
20
-1.22151
11
3.22701
21
-1.20814
0
LINE
8
BLACK
6
CONTINUOUS
10
3.22701
20
-1.20814
11
3.22913
21
-1.19491
0
LINE
8
BLACK
6
CONTINUOUS
10
3.22913
20
-1.19491
11
3.23271
21
-1.18201
0
LINE
8
BLACK
6
CONTINUOUS
10
3.23271
20
-1.18201
11
3.2377
21
-1.16958
0
LINE
8
BLACK
6
CONTINUOUS
10
3.2377
20
-1.16958
11
3.24404
21
-1.15779
0
LINE
8
BLACK
6
CONTINUOUS
10
3.24404
20
-1.15779
11
3.25166
21
-1.14677
0
LINE
8
BLACK
6
CONTINUOUS
10
3.25166
20
-1.14677
11
3.26045
21
-1.13667
0
LINE
8
BLACK
6
CONTINUOUS
10
3.26045
20
-1.13667
11
3.27032
21
-1.12762
0
LINE
8
BLACK
6
CONTINUOUS
10
3.27032
20
-1.12762
11
3.28113
21
-1.11972
0
LINE
8
BLACK
6
CONTINUOUS
10
3.28113
20
-1.11972
11
3.29273
21
-1.11309
0
LINE
8
BLACK
6
CONTINUOUS
10
3.29273
20
-1.11309
11
3.29273
21
-1.11308
0
LINE
8
BLACK
6
CONTINUOUS
10
3.29273
20
-1.11308
11
3.62114
21
-0.943134
0
LINE
8
BLACK
6
CONTINUOUS
10
3.62114
20
-0.943134
11
3.62161
21
-0.943094
0
LINE
8
BLACK
6
CONTINUOUS
10
3.62161
20
-0.943094
11
3.62205
21
-0.942913
0
LINE
8
BLACK
6
CONTINUOUS
10
3.62205
20
-0.942913
11
3.70079
21
-0.942913
0
LINE
8
BLACK
6
CONTINUOUS
10
3.70079
20
-0.942913
11
3.71132
21
-0.943604
0
LINE
8
BLACK
6
CONTINUOUS
10
3.71132
20
-0.943604
11
3.72168
21
-0.945663
0
LINE
8
BLACK
6
CONTINUOUS
10
3.72168
20
-0.945663
11
3.73167
21
-0.949057
0
LINE
8
BLACK
6
CONTINUOUS
10
3.73167
20
-0.949057
11
3.74114
21
-0.953726
0
LINE
8
BLACK
6
CONTINUOUS
10
3.74114
20
-0.953726
11
3.74992
21
-0.959592
0
LINE
8
BLACK
6
CONTINUOUS
10
3.74992
20
-0.959592
11
3.75786
21
-0.966552
0
LINE
8
BLACK
6
CONTINUOUS
10
3.75786
20
-0.966552
11
3.76482
21
-0.97449
0
LINE
8
BLACK
6
CONTINUOUS
10
3.76482
20
-0.97449
11
3.77068
21
-0.983268
0
LINE
8
BLACK
6
CONTINUOUS
10
3.77068
20
-0.983268
11
3.77535
21
-0.992736
0
LINE
8
BLACK
6
CONTINUOUS
10
3.77535
20
-0.992736
11
3.77875
21
-1.00273
0
LINE
8
BLACK
6
CONTINUOUS
10
3.77875
20
-1.00273
11
3.78081
21
-1.01309
0
LINE
8
BLACK
6
CONTINUOUS
10
3.78081
20
-1.01309
11
3.7815
21
-1.02362
0
LINE
8
BLACK
6
CONTINUOUS
10
3.7815
20
-1.02362
11
3.7815
21
-1.25984
0
LINE
8
BLACK
6
CONTINUOUS
10
3.7815
20
-1.25984
11
3.78081
21
-1.27038
0
LINE
8
BLACK
6
CONTINUOUS
10
3.78081
20
-1.27038
11
3.77875
21
-1.28073
0
LINE
8
BLACK
6
CONTINUOUS
10
3.77875
20
-1.28073
11
3.77535
21
-1.29073
0
LINE
8
BLACK
6
CONTINUOUS
10
3.77535
20
-1.29073
11
3.77068
21
-1.3002
0
LINE
8
BLACK
6
CONTINUOUS
10
3.77068
20
-1.3002
11
3.76482
21
-1.30897
0
LINE
8
BLACK
6
CONTINUOUS
10
3.76482
20
-1.30897
11
3.75786
21
-1.31691
0
LINE
8
BLACK
6
CONTINUOUS
10
3.75786
20
-1.31691
11
3.74992
21
-1.32387
0
LINE
8
BLACK
6
CONTINUOUS
10
3.74992
20
-1.32387
11
3.74114
21
-1.32974
0
LINE
8
BLACK
6
CONTINUOUS
10
3.74114
20
-1.32974
11
3.73167
21
-1.33441
0
LINE
8
BLACK
6
CONTINUOUS
10
3.73167
20
-1.33441
11
3.72168
21
-1.3378
0
LINE
8
BLACK
6
CONTINUOUS
10
3.72168
20
-1.3378
11
3.71132
21
-1.33986
0
LINE
8
BLACK
6
CONTINUOUS
10
3.71132
20
-1.33986
11
3.70079
21
-1.34055
0
LINE
8
BLACK
6
CONTINUOUS
10
3.70079
20
-1.34055
11
3.34646
21
-1.34055
0
LINE
8
BLACK
6
CONTINUOUS
10
3.34646
20
-1.34055
11
3.33309
21
-1.3398
0
LINE
8
BLACK
6
CONTINUOUS
10
3.29454
20
-1.11658
11
3.29453
21
-1.11658
0
LINE
8
BLACK
6
CONTINUOUS
10
3.29453
20
-1.11658
11
3.29452
21
-1.11659
0
LINE
8
BLACK
6
CONTINUOUS
10
3.29452
20
-1.11659
11
3.2941
21
-1.11662
0
LINE
8
BLACK
6
CONTINUOUS
10
3.2941
20
-1.11662
11
3.28317
21
-1.12287
0
LINE
8
BLACK
6
CONTINUOUS
10
3.28317
20
-1.12287
11
3.2727
21
-1.13052
0
LINE
8
BLACK
6
CONTINUOUS
10
3.2727
20
-1.13052
11
3.26314
21
-1.13929
0
LINE
8
BLACK
6
CONTINUOUS
10
3.26314
20
-1.13929
11
3.25462
21
-1.14908
0
LINE
8
BLACK
6
CONTINUOUS
10
3.25462
20
-1.14908
11
3.24724
21
-1.15975
0
LINE
8
BLACK
6
CONTINUOUS
10
3.24724
20
-1.15975
11
3.2411
21
-1.17117
0
LINE
8
BLACK
6
CONTINUOUS
10
3.2411
20
-1.17117
11
3.23626
21
-1.18321
0
LINE
8
BLACK
6
CONTINUOUS
10
3.23626
20
-1.18321
11
3.2328
21
-1.19571
0
LINE
8
BLACK
6
CONTINUOUS
10
3.2328
20
-1.19571
11
3.23075
21
-1.20852
0
LINE
8
BLACK
6
CONTINUOUS
10
3.23075
20
-1.20852
11
3.23014
21
-1.22148
0
LINE
8
BLACK
6
CONTINUOUS
10
3.23014
20
-1.22148
11
3.23097
21
-1.23443
0
LINE
8
BLACK
6
CONTINUOUS
10
3.23097
20
-1.23443
11
3.23324
21
-1.2472
0
LINE
8
BLACK
6
CONTINUOUS
10
3.23324
20
-1.2472
11
3.23692
21
-1.25964
0
LINE
8
BLACK
6
CONTINUOUS
10
3.23692
20
-1.25964
11
3.24197
21
-1.27159
0
LINE
8
BLACK
6
CONTINUOUS
10
3.24197
20
-1.27159
11
3.24831
21
-1.28291
0
LINE
8
BLACK
6
CONTINUOUS
10
3.24831
20
-1.28291
11
3.25587
21
-1.29345
0
LINE
8
BLACK
6
CONTINUOUS
10
3.25587
20
-1.29345
11
3.26456
21
-1.30308
0
LINE
8
BLACK
6
CONTINUOUS
10
3.26456
20
-1.30308
11
3.27427
21
-1.31169
0
LINE
8
BLACK
6
CONTINUOUS
10
3.27427
20
-1.31169
11
3.28487
21
-1.31916
0
LINE
8
BLACK
6
CONTINUOUS
10
3.28487
20
-1.31916
11
3.29624
21
-1.3254
0
LINE
8
BLACK
6
CONTINUOUS
10
3.29624
20
-1.3254
11
3.30824
21
-1.33034
0
LINE
8
BLACK
6
CONTINUOUS
10
3.30824
20
-1.33034
11
3.32071
21
-1.33391
0
LINE
8
BLACK
6
CONTINUOUS
10
3.32071
20
-1.33391
11
3.3335
21
-1.33607
0
LINE
8
BLACK
6
CONTINUOUS
10
3.3335
20
-1.33607
11
3.34607
21
-1.33678
0
LINE
8
BLACK
6
CONTINUOUS
10
3.34607
20
-1.33678
11
3.34646
21
-1.33661
0
LINE
8
BLACK
6
CONTINUOUS
10
3.34646
20
-1.33661
11
3.70079
21
-1.33661
0
LINE
8
BLACK
6
CONTINUOUS
10
3.70079
20
-1.33661
11
3.70113
21
-1.33676
0
LINE
8
BLACK
6
CONTINUOUS
10
3.70113
20
-1.33676
11
3.71083
21
-1.33612
0
LINE
8
BLACK
6
CONTINUOUS
10
3.71083
20
-1.33612
11
3.7207
21
-1.33416
0
LINE
8
BLACK
6
CONTINUOUS
10
3.7207
20
-1.33416
11
3.73023
21
-1.33092
0
LINE
8
BLACK
6
CONTINUOUS
10
3.73023
20
-1.33092
11
3.73926
21
-1.32647
0
LINE
8
BLACK
6
CONTINUOUS
10
3.73926
20
-1.32647
11
3.74762
21
-1.32088
0
LINE
8
BLACK
6
CONTINUOUS
10
3.74762
20
-1.32088
11
3.75519
21
-1.31424
0
LINE
8
BLACK
6
CONTINUOUS
10
3.75519
20
-1.31424
11
3.76183
21
-1.30668
0
LINE
8
BLACK
6
CONTINUOUS
10
3.76183
20
-1.30668
11
3.76742
21
-1.29831
0
LINE
8
BLACK
6
CONTINUOUS
10
3.76742
20
-1.29831
11
3.77187
21
-1.28928
0
LINE
8
BLACK
6
CONTINUOUS
10
3.77187
20
-1.28928
11
3.7751
21
-1.27976
0
LINE
8
BLACK
6
CONTINUOUS
10
3.7751
20
-1.27976
11
3.77707
21
-1.26988
0
LINE
8
BLACK
6
CONTINUOUS
10
3.77707
20
-1.26988
11
3.7777
21
-1.26019
0
LINE
8
BLACK
6
CONTINUOUS
10
3.7777
20
-1.26019
11
3.77756
21
-1.25984
0
LINE
8
BLACK
6
CONTINUOUS
10
3.77756
20
-1.25984
11
3.77756
21
-1.02362
0
LINE
8
BLACK
6
CONTINUOUS
10
3.77756
20
-1.02362
11
3.7777
21
-1.02328
0
LINE
8
BLACK
6
CONTINUOUS
10
3.7777
20
-1.02328
11
3.77707
21
-1.01358
0
LINE
8
BLACK
6
CONTINUOUS
10
3.77707
20
-1.01358
11
3.7751
21
-1.00371
0
LINE
8
BLACK
6
CONTINUOUS
10
3.7751
20
-1.00371
11
3.77187
21
-0.99418
0
LINE
8
BLACK
6
CONTINUOUS
10
3.77187
20
-0.99418
11
3.76742
21
-0.985154
0
LINE
8
BLACK
6
CONTINUOUS
10
3.76742
20
-0.985154
11
3.76183
21
-0.976786
0
LINE
8
BLACK
6
CONTINUOUS
10
3.76183
20
-0.976786
11
3.75519
21
-0.96922
0
LINE
8
BLACK
6
CONTINUOUS
10
3.75519
20
-0.96922
11
3.74762
21
-0.962584
0
LINE
8
BLACK
6
CONTINUOUS
10
3.74762
20
-0.962584
11
3.73926
21
-0.956993
0
LINE
8
BLACK
6
CONTINUOUS
10
3.73926
20
-0.956993
11
3.73023
21
-0.952542
0
LINE
8
BLACK
6
CONTINUOUS
10
3.73023
20
-0.952542
11
3.7207
21
-0.949307
0
LINE
8
BLACK
6
CONTINUOUS
10
3.7207
20
-0.949307
11
3.71083
21
-0.947344
0
LINE
8
BLACK
6
CONTINUOUS
10
3.71083
20
-0.947344
11
3.70113
21
-0.946708
0
LINE
8
BLACK
6
CONTINUOUS
10
3.70113
20
-0.946708
11
3.70079
21
-0.94685
0
LINE
8
BLACK
6
CONTINUOUS
10
3.70079
20
-0.94685
11
3.62253
21
-0.94685
0
LINE
8
BLACK
6
CONTINUOUS
10
3.62253
20
-0.94685
11
3.29454
21
-1.11658
0
LINE
8
BLACK
6
CONTINUOUS
10
2.1755
20
-2.67704
11
2.17887
21
-2.63173
0
LINE
8
BLACK
6
CONTINUOUS
10
2.17887
20
-2.63173
11
2.18373
21
-2.58656
0
LINE
8
BLACK
6
CONTINUOUS
10
2.18373
20
-2.58656
11
2.1901
21
-2.54158
0
LINE
8
BLACK
6
CONTINUOUS
10
2.1901
20
-2.54158
11
2.19795
21
-2.49683
0
LINE
8
BLACK
6
CONTINUOUS
10
2.19795
20
-2.49683
11
2.20728
21
-2.45237
0
LINE
8
BLACK
6
CONTINUOUS
10
2.20728
20
-2.45237
11
2.21807
21
-2.40824
0
LINE
8
BLACK
6
CONTINUOUS
10
2.21807
20
-2.40824
11
2.23033
21
-2.36449
0
LINE
8
BLACK
6
CONTINUOUS
10
2.23033
20
-2.36449
11
2.24403
21
-2.32117
0
LINE
8
BLACK
6
CONTINUOUS
10
2.24403
20
-2.32117
11
2.25916
21
-2.27833
0
LINE
8
BLACK
6
CONTINUOUS
10
2.25916
20
-2.27833
11
2.2757
21
-2.23602
0
LINE
8
BLACK
6
CONTINUOUS
10
2.2757
20
-2.23602
11
2.29363
21
-2.19428
0
LINE
8
BLACK
6
CONTINUOUS
10
2.29363
20
-2.19428
11
2.31294
21
-2.15315
0
LINE
8
BLACK
6
CONTINUOUS
10
2.31294
20
-2.15315
11
2.3336
21
-2.11269
0
LINE
8
BLACK
6
CONTINUOUS
10
2.3336
20
-2.11269
11
2.35559
21
-2.07294
0
LINE
8
BLACK
6
CONTINUOUS
10
2.35559
20
-2.07294
11
2.37889
21
-2.03393
0
LINE
8
BLACK
6
CONTINUOUS
10
2.37889
20
-2.03393
11
2.40346
21
-1.99572
0
LINE
8
BLACK
6
CONTINUOUS
10
2.40346
20
-1.99572
11
2.4293
21
-1.95835
0
LINE
8
BLACK
6
CONTINUOUS
10
2.4293
20
-1.95835
11
2.45635
21
-1.92185
0
LINE
8
BLACK
6
CONTINUOUS
10
2.45635
20
-1.92185
11
2.4846
21
-1.88627
0
LINE
8
BLACK
6
CONTINUOUS
10
2.4846
20
-1.88627
11
2.51402
21
-1.85165
0
LINE
8
BLACK
6
CONTINUOUS
10
2.51402
20
-1.85165
11
2.54456
21
-1.81802
0
LINE
8
BLACK
6
CONTINUOUS
10
2.54456
20
-1.81802
11
2.57621
21
-1.78542
0
LINE
8
BLACK
6
CONTINUOUS
10
2.57621
20
-1.78542
11
2.60892
21
-1.75389
0
LINE
8
BLACK
6
CONTINUOUS
10
2.60892
20
-1.75389
11
2.64265
21
-1.72346
0
LINE
8
BLACK
6
CONTINUOUS
10
2.64265
20
-1.72346
11
2.67738
21
-1.69417
0
LINE
8
BLACK
6
CONTINUOUS
10
2.67738
20
-1.69417
11
2.71306
21
-1.66604
0
LINE
8
BLACK
6
CONTINUOUS
10
2.71306
20
-1.66604
11
2.74965
21
-1.63912
0
LINE
8
BLACK
6
CONTINUOUS
10
2.74965
20
-1.63912
11
2.78711
21
-1.61342
0
LINE
8
BLACK
6
CONTINUOUS
10
2.78711
20
-1.61342
11
2.82541
21
-1.58897
0
LINE
8
BLACK
6
CONTINUOUS
10
2.82541
20
-1.58897
11
2.86449
21
-1.56581
0
LINE
8
BLACK
6
CONTINUOUS
10
2.86449
20
-1.56581
11
2.90432
21
-1.54396
0
LINE
8
BLACK
6
CONTINUOUS
10
2.90432
20
-1.54396
11
2.94485
21
-1.52344
0
LINE
8
BLACK
6
CONTINUOUS
10
2.94485
20
-1.52344
11
2.98605
21
-1.50428
0
LINE
8
BLACK
6
CONTINUOUS
10
2.98605
20
-1.50428
11
3.02785
21
-1.48649
0
LINE
8
BLACK
6
CONTINUOUS
10
3.02785
20
-1.48649
11
3.07022
21
-1.4701
0
LINE
8
BLACK
6
CONTINUOUS
10
3.07022
20
-1.4701
11
3.11311
21
-1.45512
0
LINE
8
BLACK
6
CONTINUOUS
10
3.11311
20
-1.45512
11
3.15648
21
-1.44157
0
LINE
8
BLACK
6
CONTINUOUS
10
3.15648
20
-1.44157
11
3.20027
21
-1.42947
0
LINE
8
BLACK
6
CONTINUOUS
10
3.20027
20
-1.42947
11
3.24443
21
-1.41882
0
LINE
8
BLACK
6
CONTINUOUS
10
3.24443
20
-1.41882
11
3.28893
21
-1.40965
0
LINE
8
BLACK
6
CONTINUOUS
10
3.28893
20
-1.40965
11
3.3337
21
-1.40195
0
LINE
8
BLACK
6
CONTINUOUS
10
3.3337
20
-1.40195
11
3.37871
21
-1.39575
0
LINE
8
BLACK
6
CONTINUOUS
10
3.37871
20
-1.39575
11
3.4239
21
-1.39104
0
LINE
8
BLACK
6
CONTINUOUS
10
3.4239
20
-1.39104
11
3.46921
21
-1.38783
0
LINE
8
BLACK
6
CONTINUOUS
10
3.46921
20
-1.38783
11
3.51461
21
-1.38613
0
LINE
8
BLACK
6
CONTINUOUS
10
3.51461
20
-1.38613
11
3.56005
21
-1.38593
0
LINE
8
BLACK
6
CONTINUOUS
10
3.56005
20
-1.38593
11
3.60546
21
-1.38724
0
LINE
8
BLACK
6
CONTINUOUS
10
3.60546
20
-1.38724
11
3.6508
21
-1.39005
0
LINE
8
BLACK
6
CONTINUOUS
10
3.6508
20
-1.39005
11
3.69603
21
-1.39437
0
LINE
8
BLACK
6
CONTINUOUS
10
3.69603
20
-1.39437
11
3.74109
21
-1.40018
0
LINE
8
BLACK
6
CONTINUOUS
10
3.74109
20
-1.40018
11
3.78593
21
-1.40748
0
LINE
8
BLACK
6
CONTINUOUS
10
3.78593
20
-1.40748
11
3.8305
21
-1.41627
0
LINE
8
BLACK
6
CONTINUOUS
10
3.8305
20
-1.41627
11
3.87476
21
-1.42652
0
LINE
8
BLACK
6
CONTINUOUS
10
3.87476
20
-1.42652
11
3.91865
21
-1.43824
0
LINE
8
BLACK
6
CONTINUOUS
10
3.91865
20
-1.43824
11
3.96213
21
-1.45141
0
LINE
8
BLACK
6
CONTINUOUS
10
3.96213
20
-1.45141
11
4.00515
21
-1.46602
0
LINE
8
BLACK
6
CONTINUOUS
10
4.00515
20
-1.46602
11
4.04767
21
-1.48204
0
LINE
8
BLACK
6
CONTINUOUS
10
4.04767
20
-1.48204
11
4.08962
21
-1.49946
0
LINE
8
BLACK
6
CONTINUOUS
10
4.08962
20
-1.49946
11
4.13098
21
-1.51827
0
LINE
8
BLACK
6
CONTINUOUS
10
4.13098
20
-1.51827
11
4.17169
21
-1.53843
0
LINE
8
BLACK
6
CONTINUOUS
10
4.17169
20
-1.53843
11
4.21171
21
-1.55993
0
LINE
8
BLACK
6
CONTINUOUS
10
4.21171
20
-1.55993
11
4.251
21
-1.58275
0
LINE
8
BLACK
6
CONTINUOUS
10
4.251
20
-1.58275
11
4.28951
21
-1.60686
0
LINE
8
BLACK
6
CONTINUOUS
10
4.28951
20
-1.60686
11
4.32719
21
-1.63223
0
LINE
8
BLACK
6
CONTINUOUS
10
4.32719
20
-1.63223
11
4.36402
21
-1.65884
0
LINE
8
BLACK
6
CONTINUOUS
10
4.36402
20
-1.65884
11
4.39994
21
-1.68665
0
LINE
8
BLACK
6
CONTINUOUS
10
4.39994
20
-1.68665
11
4.43492
21
-1.71564
0
LINE
8
BLACK
6
CONTINUOUS
10
4.43492
20
-1.71564
11
4.46892
21
-1.74578
0
LINE
8
BLACK
6
CONTINUOUS
10
4.46892
20
-1.74578
11
4.5019
21
-1.77702
0
LINE
8
BLACK
6
CONTINUOUS
10
4.5019
20
-1.77702
11
4.53383
21
-1.80934
0
LINE
8
BLACK
6
CONTINUOUS
10
4.53383
20
-1.80934
11
4.56467
21
-1.8427
0
LINE
8
BLACK
6
CONTINUOUS
10
4.56467
20
-1.8427
11
4.59438
21
-1.87707
0
LINE
8
BLACK
6
CONTINUOUS
10
4.59438
20
-1.87707
11
4.62294
21
-1.9124
0
LINE
8
BLACK
6
CONTINUOUS
10
4.62294
20
-1.9124
11
4.65032
21
-1.94866
0
LINE
8
BLACK
6
CONTINUOUS
10
4.65032
20
-1.94866
11
4.67647
21
-1.98581
0
LINE
8
BLACK
6
CONTINUOUS
10
4.67647
20
-1.98581
11
4.70138
21
-2.0238
0
LINE
8
BLACK
6
CONTINUOUS
10
4.70138
20
-2.0238
11
4.72502
21
-2.0626
0
LINE
8
BLACK
6
CONTINUOUS
10
4.72502
20
-2.0626
11
4.74736
21
-2.10216
0
LINE
8
BLACK
6
CONTINUOUS
10
4.74736
20
-2.10216
11
4.76837
21
-2.14244
0
LINE
8
BLACK
6
CONTINUOUS
10
4.76837
20
-2.14244
11
4.78803
21
-2.18339
0
LINE
8
BLACK
6
CONTINUOUS
10
4.78803
20
-2.18339
11
4.80633
21
-2.22498
0
LINE
8
BLACK
6
CONTINUOUS
10
4.80633
20
-2.22498
11
4.82324
21
-2.26715
0
LINE
8
BLACK
6
CONTINUOUS
10
4.82324
20
-2.26715
11
4.83874
21
-2.30985
0
LINE
8
BLACK
6
CONTINUOUS
10
4.83874
20
-2.30985
11
4.85282
21
-2.35305
0
LINE
8
BLACK
6
CONTINUOUS
10
4.85282
20
-2.35305
11
4.86546
21
-2.39669
0
LINE
8
BLACK
6
CONTINUOUS
10
4.86546
20
-2.39669
11
4.87664
21
-2.44072
0
LINE
8
BLACK
6
CONTINUOUS
10
4.87664
20
-2.44072
11
4.88636
21
-2.4851
0
LINE
8
BLACK
6
CONTINUOUS
10
4.88636
20
-2.4851
11
4.8946
21
-2.52978
0
LINE
8
BLACK
6
CONTINUOUS
10
4.8946
20
-2.52978
11
4.90135
21
-2.5747
0
LINE
8
BLACK
6
CONTINUOUS
10
4.90135
20
-2.5747
11
4.90661
21
-2.61983
0
LINE
8
BLACK
6
CONTINUOUS
10
4.90661
20
-2.61983
11
4.91037
21
-2.66511
0
LINE
8
BLACK
6
CONTINUOUS
10
4.91037
20
-2.66511
11
4.91263
21
-2.71048
0
LINE
8
BLACK
6
CONTINUOUS
10
4.91263
20
-2.71048
11
4.91339
21
-2.75591
0
LINE
8
BLACK
6
CONTINUOUS
10
4.91339
20
-2.75591
11
4.91322
21
-2.77743
0
LINE
8
BLACK
6
CONTINUOUS
10
4.91322
20
-2.77743
11
4.91175
21
-2.82283
0
LINE
8
BLACK
6
CONTINUOUS
10
4.91175
20
-2.82283
11
4.90878
21
-2.86817
0
LINE
8
BLACK
6
CONTINUOUS
10
4.90878
20
-2.86817
11
4.90431
21
-2.91338
0
LINE
8
BLACK
6
CONTINUOUS
10
4.90431
20
-2.91338
11
4.89834
21
-2.95842
0
LINE
8
BLACK
6
CONTINUOUS
10
4.89834
20
-2.95842
11
4.89088
21
-3.00323
0
LINE
8
BLACK
6
CONTINUOUS
10
4.89088
20
-3.00323
11
4.88194
21
-3.04777
0
LINE
8
BLACK
6
CONTINUOUS
10
4.88194
20
-3.04777
11
4.87152
21
-3.092
0
LINE
8
BLACK
6
CONTINUOUS
10
4.87152
20
-3.092
11
4.85965
21
-3.13585
0
LINE
8
BLACK
6
CONTINUOUS
10
4.85965
20
-3.13585
11
4.84633
21
-3.17928
0
LINE
8
BLACK
6
CONTINUOUS
10
4.84633
20
-3.17928
11
4.83158
21
-3.22225
0
LINE
8
BLACK
6
CONTINUOUS
10
4.83158
20
-3.22225
11
4.81541
21
-3.26471
0
LINE
8
BLACK
6
CONTINUOUS
10
4.81541
20
-3.26471
11
4.79784
21
-3.30661
0
LINE
8
BLACK
6
CONTINUOUS
10
4.79784
20
-3.30661
11
4.77889
21
-3.3479
0
LINE
8
BLACK
6
CONTINUOUS
10
4.77889
20
-3.3479
11
4.75858
21
-3.38854
0
LINE
8
BLACK
6
CONTINUOUS
10
4.75858
20
-3.38854
11
4.73694
21
-3.42848
0
LINE
8
BLACK
6
CONTINUOUS
10
4.73694
20
-3.42848
11
4.71398
21
-3.46769
0
LINE
8
BLACK
6
CONTINUOUS
10
4.71398
20
-3.46769
11
4.68974
21
-3.50611
0
LINE
8
BLACK
6
CONTINUOUS
10
4.68974
20
-3.50611
11
4.66424
21
-3.54371
0
LINE
8
BLACK
6
CONTINUOUS
10
4.66424
20
-3.54371
11
4.6375
21
-3.58044
0
LINE
8
BLACK
6
CONTINUOUS
10
4.6375
20
-3.58044
11
4.60956
21
-3.61626
0
LINE
8
BLACK
6
CONTINUOUS
10
4.60956
20
-3.61626
11
4.58045
21
-3.65114
0
LINE
8
BLACK
6
CONTINUOUS
10
4.58045
20
-3.65114
11
4.5502
21
-3.68504
0
LINE
8
BLACK
6
CONTINUOUS
10
4.5502
20
-3.68504
11
4.51884
21
-3.71791
0
LINE
8
BLACK
6
CONTINUOUS
10
4.51884
20
-3.71791
11
4.48641
21
-3.74973
0
LINE
8
BLACK
6
CONTINUOUS
10
4.48641
20
-3.74973
11
4.45294
21
-3.78045
0
LINE
8
BLACK
6
CONTINUOUS
10
4.45294
20
-3.78045
11
4.41847
21
-3.81004
0
LINE
8
BLACK
6
CONTINUOUS
10
4.41847
20
-3.81004
11
4.38304
21
-3.83848
0
LINE
8
BLACK
6
CONTINUOUS
10
4.38304
20
-3.83848
11
4.34668
21
-3.86573
0
LINE
8
BLACK
6
CONTINUOUS
10
4.34668
20
-3.86573
11
4.30945
21
-3.89175
0
LINE
8
BLACK
6
CONTINUOUS
10
4.30945
20
-3.89175
11
4.27137
21
-3.91653
0
LINE
8
BLACK
6
CONTINUOUS
10
4.27137
20
-3.91653
11
4.23248
21
-3.94003
0
LINE
8
BLACK
6
CONTINUOUS
10
4.23248
20
-3.94003
11
4.19285
21
-3.96223
0
LINE
8
BLACK
6
CONTINUOUS
10
4.19285
20
-3.96223
11
4.15249
21
-3.9831
0
LINE
8
BLACK
6
CONTINUOUS
10
4.15249
20
-3.9831
11
4.11147
21
-4.00262
0
LINE
8
BLACK
6
CONTINUOUS
10
4.11147
20
-4.00262
11
4.06982
21
-4.02078
0
LINE
8
BLACK
6
CONTINUOUS
10
4.06982
20
-4.02078
11
4.0276
21
-4.03754
0
LINE
8
BLACK
6
CONTINUOUS
10
4.0276
20
-4.03754
11
3.98484
21
-4.05289
0
LINE
8
BLACK
6
CONTINUOUS
10
3.98484
20
-4.05289
11
3.94159
21
-4.06682
0
LINE
8
BLACK
6
CONTINUOUS
10
3.94159
20
-4.06682
11
3.89791
21
-4.0793
0
LINE
8
BLACK
6
CONTINUOUS
10
3.89791
20
-4.0793
11
3.85384
21
-4.09033
0
LINE
8
BLACK
6
CONTINUOUS
10
3.85384
20
-4.09033
11
3.80942
21
-4.09989
0
LINE
8
BLACK
6
CONTINUOUS
10
3.80942
20
-4.09989
11
3.76472
21
-4.10798
0
LINE
8
BLACK
6
CONTINUOUS
10
3.76472
20
-4.10798
11
3.71977
21
-4.11457
0
LINE
8
BLACK
6
CONTINUOUS
10
3.71977
20
-4.11457
11
3.67462
21
-4.11968
0
LINE
8
BLACK
6
CONTINUOUS
10
3.67462
20
-4.11968
11
3.62934
21
-4.12328
0
LINE
8
BLACK
6
CONTINUOUS
10
3.62934
20
-4.12328
11
3.58395
21
-4.12538
0
LINE
8
BLACK
6
CONTINUOUS
10
3.58395
20
-4.12538
11
3.53852
21
-4.12598
0
LINE
8
BLACK
6
CONTINUOUS
10
3.53852
20
-4.12598
11
3.4931
21
-4.12506
0
LINE
8
BLACK
6
CONTINUOUS
10
3.4931
20
-4.12506
11
3.44774
21
-4.12265
0
LINE
8
BLACK
6
CONTINUOUS
10
3.44774
20
-4.12265
11
3.40247
21
-4.11873
0
LINE
8
BLACK
6
CONTINUOUS
10
3.40247
20
-4.11873
11
3.35737
21
-4.11331
0
LINE
8
BLACK
6
CONTINUOUS
10
3.35737
20
-4.11331
11
3.31246
21
-4.1064
0
LINE
8
BLACK
6
CONTINUOUS
10
3.31246
20
-4.1064
11
3.26781
21
-4.098
0
LINE
8
BLACK
6
CONTINUOUS
10
3.26781
20
-4.098
11
3.22347
21
-4.08813
0
LINE
8
BLACK
6
CONTINUOUS
10
3.22347
20
-4.08813
11
3.17947
21
-4.07679
0
LINE
8
BLACK
6
CONTINUOUS
10
3.17947
20
-4.07679
11
3.13588
21
-4.064
0
LINE
8
BLACK
6
CONTINUOUS
10
3.13588
20
-4.064
11
3.09273
21
-4.04978
0
LINE
8
BLACK
6
CONTINUOUS
10
3.09273
20
-4.04978
11
3.05008
21
-4.03413
0
LINE
8
BLACK
6
CONTINUOUS
10
3.05008
20
-4.03413
11
3.00797
21
-4.01707
0
LINE
8
BLACK
6
CONTINUOUS
10
3.00797
20
-4.01707
11
2.96645
21
-3.99863
0
LINE
8
BLACK
6
CONTINUOUS
10
2.96645
20
-3.99863
11
2.92557
21
-3.97882
0
LINE
8
BLACK
6
CONTINUOUS
10
2.92557
20
-3.97882
11
2.88536
21
-3.95766
0
LINE
8
BLACK
6
CONTINUOUS
10
2.88536
20
-3.95766
11
2.84588
21
-3.93519
0
LINE
8
BLACK
6
CONTINUOUS
10
2.84588
20
-3.93519
11
2.80716
21
-3.91142
0
LINE
8
BLACK
6
CONTINUOUS
10
2.80716
20
-3.91142
11
2.76926
21
-3.88638
0
LINE
8
BLACK
6
CONTINUOUS
10
2.76926
20
-3.88638
11
2.7322
21
-3.86009
0
LINE
8
BLACK
6
CONTINUOUS
10
2.7322
20
-3.86009
11
2.69604
21
-3.83259
0
LINE
8
BLACK
6
CONTINUOUS
10
2.69604
20
-3.83259
11
2.66081
21
-3.80391
0
LINE
8
BLACK
6
CONTINUOUS
10
2.66081
20
-3.80391
11
2.62655
21
-3.77407
0
LINE
8
BLACK
6
CONTINUOUS
10
2.62655
20
-3.77407
11
2.59329
21
-3.74312
0
LINE
8
BLACK
6
CONTINUOUS
10
2.59329
20
-3.74312
11
2.56108
21
-3.71108
0
LINE
8
BLACK
6
CONTINUOUS
10
2.56108
20
-3.71108
11
2.52995
21
-3.67799
0
LINE
8
BLACK
6
CONTINUOUS
10
2.52995
20
-3.67799
11
2.49994
21
-3.64388
0
LINE
8
BLACK
6
CONTINUOUS
10
2.49994
20
-3.64388
11
2.47107
21
-3.6088
0
LINE
8
BLACK
6
CONTINUOUS
10
2.47107
20
-3.6088
11
2.44338
21
-3.57278
0
LINE
8
BLACK
6
CONTINUOUS
10
2.44338
20
-3.57278
11
2.4169
21
-3.53586
0
LINE
8
BLACK
6
CONTINUOUS
10
2.4169
20
-3.53586
11
2.39166
21
-3.49809
0
LINE
8
BLACK
6
CONTINUOUS
10
2.39166
20
-3.49809
11
2.36769
21
-3.4595
0
LINE
8
BLACK
6
CONTINUOUS
10
2.36769
20
-3.4595
11
2.34501
21
-3.42013
0
LINE
8
BLACK
6
CONTINUOUS
10
2.34501
20
-3.42013
11
2.32365
21
-3.38004
0
LINE
8
BLACK
6
CONTINUOUS
10
2.32365
20
-3.38004
11
2.30362
21
-3.33926
0
LINE
8
BLACK
6
CONTINUOUS
10
2.30362
20
-3.33926
11
2.28496
21
-3.29783
0
LINE
8
BLACK
6
CONTINUOUS
10
2.28496
20
-3.29783
11
2.26769
21
-3.25582
0
LINE
8
BLACK
6
CONTINUOUS
10
2.26769
20
-3.25582
11
2.25181
21
-3.21325
0
LINE
8
BLACK
6
CONTINUOUS
10
2.25181
20
-3.21325
11
2.23736
21
-3.17018
0
LINE
8
BLACK
6
CONTINUOUS
10
2.23736
20
-3.17018
11
2.22434
21
-3.12665
0
LINE
8
BLACK
6
CONTINUOUS
10
2.22434
20
-3.12665
11
2.21278
21
-3.08272
0
LINE
8
BLACK
6
CONTINUOUS
10
2.21278
20
-3.08272
11
2.20267
21
-3.03842
0
LINE
8
BLACK
6
CONTINUOUS
10
2.20267
20
-3.03842
11
2.19404
21
-2.99382
0
LINE
8
BLACK
6
CONTINUOUS
10
2.19404
20
-2.99382
11
2.1869
21
-2.94895
0
LINE
8
BLACK
6
CONTINUOUS
10
2.1869
20
-2.94895
11
2.18124
21
-2.90387
0
LINE
8
BLACK
6
CONTINUOUS
10
2.18124
20
-2.90387
11
2.17708
21
-2.85863
0
LINE
8
BLACK
6
CONTINUOUS
10
2.17708
20
-2.85863
11
2.17443
21
-2.81328
0
LINE
8
BLACK
6
CONTINUOUS
10
2.17443
20
-2.81328
11
2.17328
21
-2.76786
0
LINE
8
BLACK
6
CONTINUOUS
10
2.17328
20
-2.76786
11
2.17328
21
-2.76759
0
LINE
8
BLACK
6
CONTINUOUS
10
2.17328
20
-2.76759
11
2.17364
21
-2.72243
0
LINE
8
BLACK
6
CONTINUOUS
10
2.17364
20
-2.72243
11
2.1755
21
-2.67704
0
LINE
8
BLACK
6
CONTINUOUS
10
2.2083
20
-2.85629
11
2.21236
21
-2.90049
0
LINE
8
BLACK
6
CONTINUOUS
10
2.21236
20
-2.90049
11
2.21789
21
-2.94454
0
LINE
8
BLACK
6
CONTINUOUS
10
2.21789
20
-2.94454
11
2.22487
21
-2.98838
0
LINE
8
BLACK
6
CONTINUOUS
10
2.22487
20
-2.98838
11
2.2333
21
-3.03197
0
LINE
8
BLACK
6
CONTINUOUS
10
2.2333
20
-3.03197
11
2.24317
21
-3.07525
0
LINE
8
BLACK
6
CONTINUOUS
10
2.24317
20
-3.07525
11
2.25448
21
-3.11818
0
LINE
8
BLACK
6
CONTINUOUS
10
2.25448
20
-3.11818
11
2.2672
21
-3.16071
0
LINE
8
BLACK
6
CONTINUOUS
10
2.2672
20
-3.16071
11
2.28132
21
-3.2028
0
LINE
8
BLACK
6
CONTINUOUS
10
2.28132
20
-3.2028
11
2.29683
21
-3.24439
0
LINE
8
BLACK
6
CONTINUOUS
10
2.29683
20
-3.24439
11
2.31371
21
-3.28545
0
LINE
8
BLACK
6
CONTINUOUS
10
2.31371
20
-3.28545
11
2.33194
21
-3.32593
0
LINE
8
BLACK
6
CONTINUOUS
10
2.33194
20
-3.32593
11
2.35151
21
-3.36578
0
LINE
8
BLACK
6
CONTINUOUS
10
2.35151
20
-3.36578
11
2.37239
21
-3.40496
0
LINE
8
BLACK
6
CONTINUOUS
10
2.37239
20
-3.40496
11
2.39455
21
-3.44342
0
LINE
8
BLACK
6
CONTINUOUS
10
2.39455
20
-3.44342
11
2.41798
21
-3.48113
0
LINE
8
BLACK
6
CONTINUOUS
10
2.41798
20
-3.48113
11
2.44264
21
-3.51804
0
LINE
8
BLACK
6
CONTINUOUS
10
2.44264
20
-3.51804
11
2.46851
21
-3.55412
0
LINE
8
BLACK
6
CONTINUOUS
10
2.46851
20
-3.55412
11
2.49557
21
-3.58931
0
LINE
8
BLACK
6
CONTINUOUS
10
2.49557
20
-3.58931
11
2.52378
21
-3.62359
0
LINE
8
BLACK
6
CONTINUOUS
10
2.52378
20
-3.62359
11
2.55311
21
-3.65692
0
LINE
8
BLACK
6
CONTINUOUS
10
2.55311
20
-3.65692
11
2.58352
21
-3.68925
0
LINE
8
BLACK
6
CONTINUOUS
10
2.58352
20
-3.68925
11
2.615
21
-3.72056
0
LINE
8
BLACK
6
CONTINUOUS
10
2.615
20
-3.72056
11
2.64749
21
-3.75081
0
LINE
8
BLACK
6
CONTINUOUS
10
2.64749
20
-3.75081
11
2.68097
21
-3.77997
0
LINE
8
BLACK
6
CONTINUOUS
10
2.68097
20
-3.77997
11
2.7154
21
-3.80799
0
LINE
8
BLACK
6
CONTINUOUS
10
2.7154
20
-3.80799
11
2.75073
21
-3.83486
0
LINE
8
BLACK
6
CONTINUOUS
10
2.75073
20
-3.83486
11
2.78694
21
-3.86055
0
LINE
8
BLACK
6
CONTINUOUS
10
2.78694
20
-3.86055
11
2.82398
21
-3.88502
0
LINE
8
BLACK
6
CONTINUOUS
10
2.82398
20
-3.88502
11
2.86181
21
-3.90825
0
LINE
8
BLACK
6
CONTINUOUS
10
2.86181
20
-3.90825
11
2.90039
21
-3.93021
0
LINE
8
BLACK
6
CONTINUOUS
10
2.90039
20
-3.93021
11
2.93968
21
-3.95088
0
LINE
8
BLACK
6
CONTINUOUS
10
2.93968
20
-3.95088
11
2.97963
21
-3.97024
0
LINE
8
BLACK
6
CONTINUOUS
10
2.97963
20
-3.97024
11
3.0202
21
-3.98826
0
LINE
8
BLACK
6
CONTINUOUS
10
3.0202
20
-3.98826
11
3.06135
21
-4.00492
0
LINE
8
BLACK
6
CONTINUOUS
10
3.06135
20
-4.00492
11
3.10303
21
-4.02022
0
LINE
8
BLACK
6
CONTINUOUS
10
3.10303
20
-4.02022
11
3.14519
21
-4.03412
0
LINE
8
BLACK
6
CONTINUOUS
10
3.14519
20
-4.03412
11
3.18779
21
-4.04662
0
LINE
8
BLACK
6
CONTINUOUS
10
3.18779
20
-4.04662
11
3.23078
21
-4.05769
0
LINE
8
BLACK
6
CONTINUOUS
10
3.23078
20
-4.05769
11
3.27411
21
-4.06734
0
LINE
8
BLACK
6
CONTINUOUS
10
3.27411
20
-4.06734
11
3.31774
21
-4.07554
0
LINE
8
BLACK
6
CONTINUOUS
10
3.31774
20
-4.07554
11
3.36161
21
-4.0823
0
LINE
8
BLACK
6
CONTINUOUS
10
3.36161
20
-4.0823
11
3.40569
21
-4.08759
0
LINE
8
BLACK
6
CONTINUOUS
10
3.40569
20
-4.08759
11
3.44992
21
-4.09142
0
LINE
8
BLACK
6
CONTINUOUS
10
3.44992
20
-4.09142
11
3.49425
21
-4.09378
0
LINE
8
BLACK
6
CONTINUOUS
10
3.49425
20
-4.09378
11
3.53863
21
-4.09468
0
LINE
8
BLACK
6
CONTINUOUS
10
3.53863
20
-4.09468
11
3.58302
21
-4.09409
0
LINE
8
BLACK
6
CONTINUOUS
10
3.58302
20
-4.09409
11
3.62737
21
-4.09204
0
LINE
8
BLACK
6
CONTINUOUS
10
3.62737
20
-4.09204
11
3.67162
21
-4.08852
0
LINE
8
BLACK
6
CONTINUOUS
10
3.67162
20
-4.08852
11
3.71574
21
-4.08353
0
LINE
8
BLACK
6
CONTINUOUS
10
3.71574
20
-4.08353
11
3.75966
21
-4.07709
0
LINE
8
BLACK
6
CONTINUOUS
10
3.75966
20
-4.07709
11
3.80334
21
-4.06919
0
LINE
8
BLACK
6
CONTINUOUS
10
3.80334
20
-4.06919
11
3.84674
21
-4.05984
0
LINE
8
BLACK
6
CONTINUOUS
10
3.84674
20
-4.05984
11
3.88981
21
-4.04907
0
LINE
8
BLACK
6
CONTINUOUS
10
3.88981
20
-4.04907
11
3.93249
21
-4.03687
0
LINE
8
BLACK
6
CONTINUOUS
10
3.93249
20
-4.03687
11
3.97475
21
-4.02326
0
LINE
8
BLACK
6
CONTINUOUS
10
3.97475
20
-4.02326
11
4.01653
21
-4.00826
0
LINE
8
BLACK
6
CONTINUOUS
10
4.01653
20
-4.00826
11
4.05779
21
-3.99188
0
LINE
8
BLACK
6
CONTINUOUS
10
4.05779
20
-3.99188
11
4.09849
21
-3.97414
0
LINE
8
BLACK
6
CONTINUOUS
10
4.09849
20
-3.97414
11
4.13857
21
-3.95506
0
LINE
8
BLACK
6
CONTINUOUS
10
4.13857
20
-3.95506
11
4.17801
21
-3.93467
0
LINE
8
BLACK
6
CONTINUOUS
10
4.17801
20
-3.93467
11
4.21674
21
-3.91298
0
LINE
8
BLACK
6
CONTINUOUS
10
4.21674
20
-3.91298
11
4.25473
21
-3.89001
0
LINE
8
BLACK
6
CONTINUOUS
10
4.25473
20
-3.89001
11
4.29194
21
-3.8658
0
LINE
8
BLACK
6
CONTINUOUS
10
4.29194
20
-3.8658
11
4.32833
21
-3.84037
0
LINE
8
BLACK
6
CONTINUOUS
10
4.32833
20
-3.84037
11
4.36385
21
-3.81375
0
LINE
8
BLACK
6
CONTINUOUS
10
4.36385
20
-3.81375
11
4.39848
21
-3.78596
0
LINE
8
BLACK
6
CONTINUOUS
10
4.39848
20
-3.78596
11
4.43216
21
-3.75704
0
LINE
8
BLACK
6
CONTINUOUS
10
4.43216
20
-3.75704
11
4.46486
21
-3.72702
0
LINE
8
BLACK
6
CONTINUOUS
10
4.46486
20
-3.72702
11
4.49655
21
-3.69593
0
LINE
8
BLACK
6
CONTINUOUS
10
4.49655
20
-3.69593
11
4.52719
21
-3.66381
0
LINE
8
BLACK
6
CONTINUOUS
10
4.52719
20
-3.66381
11
4.55676
21
-3.63069
0
LINE
8
BLACK
6
CONTINUOUS
10
4.55676
20
-3.63069
11
4.5852
21
-3.59661
0
LINE
8
BLACK
6
CONTINUOUS
10
4.5852
20
-3.59661
11
4.6125
21
-3.5616
0
LINE
8
BLACK
6
CONTINUOUS
10
4.6125
20
-3.5616
11
4.63863
21
-3.52571
0
LINE
8
BLACK
6
CONTINUOUS
10
4.63863
20
-3.52571
11
4.66355
21
-3.48897
0
LINE
8
BLACK
6
CONTINUOUS
10
4.66355
20
-3.48897
11
4.68724
21
-3.45143
0
LINE
8
BLACK
6
CONTINUOUS
10
4.68724
20
-3.45143
11
4.70967
21
-3.41312
0
LINE
8
BLACK
6
CONTINUOUS
10
4.70967
20
-3.41312
11
4.73082
21
-3.37408
0
LINE
8
BLACK
6
CONTINUOUS
10
4.73082
20
-3.37408
11
4.75066
21
-3.33437
0
LINE
8
BLACK
6
CONTINUOUS
10
4.75066
20
-3.33437
11
4.76918
21
-3.29402
0
LINE
8
BLACK
6
CONTINUOUS
10
4.76918
20
-3.29402
11
4.78634
21
-3.25308
0
LINE
8
BLACK
6
CONTINUOUS
10
4.78634
20
-3.25308
11
4.80214
21
-3.2116
0
LINE
8
BLACK
6
CONTINUOUS
10
4.80214
20
-3.2116
11
4.81656
21
-3.16961
0
LINE
8
BLACK
6
CONTINUOUS
10
4.81656
20
-3.16961
11
4.82958
21
-3.12717
0
LINE
8
BLACK
6
CONTINUOUS
10
4.82958
20
-3.12717
11
4.84118
21
-3.08432
0
LINE
8
BLACK
6
CONTINUOUS
10
4.84118
20
-3.08432
11
4.85135
21
-3.04111
0
LINE
8
BLACK
6
CONTINUOUS
10
4.85135
20
-3.04111
11
4.86009
21
-2.99758
0
LINE
8
BLACK
6
CONTINUOUS
10
4.86009
20
-2.99758
11
4.86738
21
-2.95379
0
LINE
8
BLACK
6
CONTINUOUS
10
4.86738
20
-2.95379
11
4.87321
21
-2.90978
0
LINE
8
BLACK
6
CONTINUOUS
10
4.87321
20
-2.90978
11
4.87758
21
-2.8656
0
LINE
8
BLACK
6
CONTINUOUS
10
4.87758
20
-2.8656
11
4.88049
21
-2.8213
0
LINE
8
BLACK
6
CONTINUOUS
10
4.88049
20
-2.8213
11
4.88192
21
-2.77693
0
LINE
8
BLACK
6
CONTINUOUS
10
4.88192
20
-2.77693
11
4.88208
21
-2.75591
0
LINE
8
BLACK
6
CONTINUOUS
10
4.88208
20
-2.75591
11
4.88135
21
-2.71152
0
LINE
8
BLACK
6
CONTINUOUS
10
4.88135
20
-2.71152
11
4.87914
21
-2.66718
0
LINE
8
BLACK
6
CONTINUOUS
10
4.87914
20
-2.66718
11
4.87547
21
-2.62294
0
LINE
8
BLACK
6
CONTINUOUS
10
4.87547
20
-2.62294
11
4.87032
21
-2.57884
0
LINE
8
BLACK
6
CONTINUOUS
10
4.87032
20
-2.57884
11
4.86372
21
-2.53494
0
LINE
8
BLACK
6
CONTINUOUS
10
4.86372
20
-2.53494
11
4.85567
21
-2.49129
0
LINE
8
BLACK
6
CONTINUOUS
10
4.85567
20
-2.49129
11
4.84618
21
-2.44792
0
LINE
8
BLACK
6
CONTINUOUS
10
4.84618
20
-2.44792
11
4.83525
21
-2.40489
0
LINE
8
BLACK
6
CONTINUOUS
10
4.83525
20
-2.40489
11
4.8229
21
-2.36225
0
LINE
8
BLACK
6
CONTINUOUS
10
4.8229
20
-2.36225
11
4.80915
21
-2.32004
0
LINE
8
BLACK
6
CONTINUOUS
10
4.80915
20
-2.32004
11
4.794
21
-2.27831
0
LINE
8
BLACK
6
CONTINUOUS
10
4.794
20
-2.27831
11
4.77748
21
-2.23711
0
LINE
8
BLACK
6
CONTINUOUS
10
4.77748
20
-2.23711
11
4.7596
21
-2.19647
0
LINE
8
BLACK
6
CONTINUOUS
10
4.7596
20
-2.19647
11
4.74038
21
-2.15646
0
LINE
8
BLACK
6
CONTINUOUS
10
4.74038
20
-2.15646
11
4.71985
21
-2.1171
0
LINE
8
BLACK
6
CONTINUOUS
10
4.71985
20
-2.1171
11
4.69802
21
-2.07844
0
LINE
8
BLACK
6
CONTINUOUS
10
4.69802
20
-2.07844
11
4.67492
21
-2.04053
0
LINE
8
BLACK
6
CONTINUOUS
10
4.67492
20
-2.04053
11
4.65058
21
-2.0034
0
LINE
8
BLACK
6
CONTINUOUS
10
4.65058
20
-2.0034
11
4.62503
21
-1.9671
0
LINE
8
BLACK
6
CONTINUOUS
10
4.62503
20
-1.9671
11
4.59828
21
-1.93167
0
LINE
8
BLACK
6
CONTINUOUS
10
4.59828
20
-1.93167
11
4.57037
21
-1.89715
0
LINE
8
BLACK
6
CONTINUOUS
10
4.57037
20
-1.89715
11
4.54133
21
-1.86357
0
LINE
8
BLACK
6
CONTINUOUS
10
4.54133
20
-1.86357
11
4.5112
21
-1.83097
0
LINE
8
BLACK
6
CONTINUOUS
10
4.5112
20
-1.83097
11
4.48
21
-1.79939
0
LINE
8
BLACK
6
CONTINUOUS
10
4.48
20
-1.79939
11
4.44777
21
-1.76886
0
LINE
8
BLACK
6
CONTINUOUS
10
4.44777
20
-1.76886
11
4.41455
21
-1.73941
0
LINE
8
BLACK
6
CONTINUOUS
10
4.41455
20
-1.73941
11
4.38037
21
-1.71108
0
LINE
8
BLACK
6
CONTINUOUS
10
4.38037
20
-1.71108
11
4.34527
21
-1.6839
0
LINE
8
BLACK
6
CONTINUOUS
10
4.34527
20
-1.6839
11
4.30928
21
-1.6579
0
LINE
8
BLACK
6
CONTINUOUS
10
4.30928
20
-1.6579
11
4.27246
21
-1.63311
0
LINE
8
BLACK
6
CONTINUOUS
10
4.27246
20
-1.63311
11
4.23483
21
-1.60955
0
LINE
8
BLACK
6
CONTINUOUS
10
4.23483
20
-1.60955
11
4.19644
21
-1.58726
0
LINE
8
BLACK
6
CONTINUOUS
10
4.19644
20
-1.58726
11
4.15734
21
-1.56624
0
LINE
8
BLACK
6
CONTINUOUS
10
4.15734
20
-1.56624
11
4.11756
21
-1.54654
0
LINE
8
BLACK
6
CONTINUOUS
10
4.11756
20
-1.54654
11
4.07714
21
-1.52817
0
LINE
8
BLACK
6
CONTINUOUS
10
4.07714
20
-1.52817
11
4.03614
21
-1.51114
0
LINE
8
BLACK
6
CONTINUOUS
10
4.03614
20
-1.51114
11
3.9946
21
-1.49549
0
LINE
8
BLACK
6
CONTINUOUS
10
3.9946
20
-1.49549
11
3.95257
21
-1.48122
0
LINE
8
BLACK
6
CONTINUOUS
10
3.95257
20
-1.48122
11
3.91008
21
-1.46835
0
LINE
8
BLACK
6
CONTINUOUS
10
3.91008
20
-1.46835
11
3.86719
21
-1.4569
0
LINE
8
BLACK
6
CONTINUOUS
10
3.86719
20
-1.4569
11
3.82394
21
-1.44687
0
LINE
8
BLACK
6
CONTINUOUS
10
3.82394
20
-1.44687
11
3.78038
21
-1.43829
0
LINE
8
BLACK
6
CONTINUOUS
10
3.78038
20
-1.43829
11
3.73657
21
-1.43115
0
LINE
8
BLACK
6
CONTINUOUS
10
3.73657
20
-1.43115
11
3.69254
21
-1.42547
0
LINE
8
BLACK
6
CONTINUOUS
10
3.69254
20
-1.42547
11
3.64835
21
-1.42125
0
LINE
8
BLACK
6
CONTINUOUS
10
3.64835
20
-1.42125
11
3.60404
21
-1.41851
0
LINE
8
BLACK
6
CONTINUOUS
10
3.60404
20
-1.41851
11
3.55966
21
-1.41723
0
LINE
8
BLACK
6
CONTINUOUS
10
3.55966
20
-1.41723
11
3.51527
21
-1.41742
0
LINE
8
BLACK
6
CONTINUOUS
10
3.51527
20
-1.41742
11
3.47091
21
-1.41909
0
LINE
8
BLACK
6
CONTINUOUS
10
3.47091
20
-1.41909
11
3.42662
21
-1.42222
0
LINE
8
BLACK
6
CONTINUOUS
10
3.42662
20
-1.42222
11
3.38247
21
-1.42682
0
LINE
8
BLACK
6
CONTINUOUS
10
3.38247
20
-1.42682
11
3.33849
21
-1.43289
0
LINE
8
BLACK
6
CONTINUOUS
10
3.33849
20
-1.43289
11
3.29474
21
-1.44041
0
LINE
8
BLACK
6
CONTINUOUS
10
3.29474
20
-1.44041
11
3.25126
21
-1.44937
0
LINE
8
BLACK
6
CONTINUOUS
10
3.25126
20
-1.44937
11
3.2081
21
-1.45977
0
LINE
8
BLACK
6
CONTINUOUS
10
3.2081
20
-1.45977
11
3.16531
21
-1.4716
0
LINE
8
BLACK
6
CONTINUOUS
10
3.16531
20
-1.4716
11
3.12294
21
-1.48484
0
LINE
8
BLACK
6
CONTINUOUS
10
3.12294
20
-1.48484
11
3.08103
21
-1.49947
0
LINE
8
BLACK
6
CONTINUOUS
10
3.08103
20
-1.49947
11
3.03963
21
-1.51549
0
LINE
8
BLACK
6
CONTINUOUS
10
3.03963
20
-1.51549
11
2.99878
21
-1.53287
0
LINE
8
BLACK
6
CONTINUOUS
10
2.99878
20
-1.53287
11
2.95853
21
-1.5516
0
LINE
8
BLACK
6
CONTINUOUS
10
2.95853
20
-1.5516
11
2.91892
21
-1.57165
0
LINE
8
BLACK
6
CONTINUOUS
10
2.91892
20
-1.57165
11
2.88
21
-1.593
0
LINE
8
BLACK
6
CONTINUOUS
10
2.88
20
-1.593
11
2.84181
21
-1.61563
0
LINE
8
BLACK
6
CONTINUOUS
10
2.84181
20
-1.61563
11
2.80439
21
-1.63952
0
LINE
8
BLACK
6
CONTINUOUS
10
2.80439
20
-1.63952
11
2.76778
21
-1.66463
0
LINE
8
BLACK
6
CONTINUOUS
10
2.76778
20
-1.66463
11
2.73202
21
-1.69094
0
LINE
8
BLACK
6
CONTINUOUS
10
2.73202
20
-1.69094
11
2.69716
21
-1.71843
0
LINE
8
BLACK
6
CONTINUOUS
10
2.69716
20
-1.71843
11
2.66323
21
-1.74705
0
LINE
8
BLACK
6
CONTINUOUS
10
2.66323
20
-1.74705
11
2.63026
21
-1.77679
0
LINE
8
BLACK
6
CONTINUOUS
10
2.63026
20
-1.77679
11
2.5983
21
-1.8076
0
LINE
8
BLACK
6
CONTINUOUS
10
2.5983
20
-1.8076
11
2.56738
21
-1.83945
0
LINE
8
BLACK
6
CONTINUOUS
10
2.56738
20
-1.83945
11
2.53753
21
-1.87231
0
LINE
8
BLACK
6
CONTINUOUS
10
2.53753
20
-1.87231
11
2.50879
21
-1.90614
0
LINE
8
BLACK
6
CONTINUOUS
10
2.50879
20
-1.90614
11
2.48118
21
-1.94091
0
LINE
8
BLACK
6
CONTINUOUS
10
2.48118
20
-1.94091
11
2.45475
21
-1.97657
0
LINE
8
BLACK
6
CONTINUOUS
10
2.45475
20
-1.97657
11
2.42951
21
-2.01309
0
LINE
8
BLACK
6
CONTINUOUS
10
2.42951
20
-2.01309
11
2.40549
21
-2.05043
0
LINE
8
BLACK
6
CONTINUOUS
10
2.40549
20
-2.05043
11
2.38272
21
-2.08854
0
LINE
8
BLACK
6
CONTINUOUS
10
2.38272
20
-2.08854
11
2.36124
21
-2.12739
0
LINE
8
BLACK
6
CONTINUOUS
10
2.36124
20
-2.12739
11
2.34105
21
-2.16692
0
LINE
8
BLACK
6
CONTINUOUS
10
2.34105
20
-2.16692
11
2.32218
21
-2.20711
0
LINE
8
BLACK
6
CONTINUOUS
10
2.32218
20
-2.20711
11
2.30466
21
-2.2479
0
LINE
8
BLACK
6
CONTINUOUS
10
2.30466
20
-2.2479
11
2.28849
21
-2.28924
0
LINE
8
BLACK
6
CONTINUOUS
10
2.28849
20
-2.28924
11
2.27371
21
-2.33111
0
LINE
8
BLACK
6
CONTINUOUS
10
2.27371
20
-2.33111
11
2.26033
21
-2.37343
0
LINE
8
BLACK
6
CONTINUOUS
10
2.26033
20
-2.37343
11
2.24835
21
-2.41618
0
LINE
8
BLACK
6
CONTINUOUS
10
2.24835
20
-2.41618
11
2.2378
21
-2.4593
0
LINE
8
BLACK
6
CONTINUOUS
10
2.2378
20
-2.4593
11
2.22868
21
-2.50275
0
LINE
8
BLACK
6
CONTINUOUS
10
2.22868
20
-2.50275
11
2.22101
21
-2.54647
0
LINE
8
BLACK
6
CONTINUOUS
10
2.22101
20
-2.54647
11
2.2148
21
-2.59043
0
LINE
8
BLACK
6
CONTINUOUS
10
2.2148
20
-2.59043
11
2.21004
21
-2.63457
0
LINE
8
BLACK
6
CONTINUOUS
10
2.21004
20
-2.63457
11
2.20675
21
-2.67884
0
LINE
8
BLACK
6
CONTINUOUS
10
2.20675
20
-2.67884
11
2.20493
21
-2.7232
0
LINE
8
BLACK
6
CONTINUOUS
10
2.20493
20
-2.7232
11
2.20458
21
-2.76759
0
LINE
8
BLACK
6
CONTINUOUS
10
2.20458
20
-2.76759
11
2.2057
21
-2.81197
0
LINE
8
BLACK
6
CONTINUOUS
10
2.2057
20
-2.81197
11
2.2083
21
-2.85629
0
LINE
8
BLACK
6
CONTINUOUS
10
2.87608
20
-2.70339
11
2.87929
21
-2.67202
0
LINE
8
BLACK
6
CONTINUOUS
10
2.87929
20
-2.67202
11
2.88398
21
-2.64083
0
LINE
8
BLACK
6
CONTINUOUS
10
2.88398
20
-2.64083
11
2.89013
21
-2.6099
0
LINE
8
BLACK
6
CONTINUOUS
10
2.89013
20
-2.6099
11
2.89774
21
-2.5793
0
LINE
8
BLACK
6
CONTINUOUS
10
2.89774
20
-2.5793
11
2.90677
21
-2.54908
0
LINE
8
BLACK
6
CONTINUOUS
10
2.90677
20
-2.54908
11
2.91722
21
-2.51933
0
LINE
8
BLACK
6
CONTINUOUS
10
2.91722
20
-2.51933
11
2.92906
21
-2.4901
0
LINE
8
BLACK
6
CONTINUOUS
10
2.92906
20
-2.4901
11
2.94226
21
-2.46146
0
LINE
8
BLACK
6
CONTINUOUS
10
2.94226
20
-2.46146
11
2.9568
21
-2.43347
0
LINE
8
BLACK
6
CONTINUOUS
10
2.9568
20
-2.43347
11
2.97264
21
-2.4062
0
LINE
8
BLACK
6
CONTINUOUS
10
2.97264
20
-2.4062
11
2.98975
21
-2.37971
0
LINE
8
BLACK
6
CONTINUOUS
10
2.98975
20
-2.37971
11
3.00809
21
-2.35405
0
LINE
8
BLACK
6
CONTINUOUS
10
3.00809
20
-2.35405
11
3.02761
21
-2.32928
0
LINE
8
BLACK
6
CONTINUOUS
10
3.02761
20
-2.32928
11
3.04828
21
-2.30546
0
LINE
8
BLACK
6
CONTINUOUS
10
3.04828
20
-2.30546
11
3.07005
21
-2.28265
0
LINE
8
BLACK
6
CONTINUOUS
10
3.07005
20
-2.28265
11
3.09287
21
-2.26088
0
LINE
8
BLACK
6
CONTINUOUS
10
3.09287
20
-2.26088
11
3.11668
21
-2.24021
0
LINE
8
BLACK
6
CONTINUOUS
10
3.11668
20
-2.24021
11
3.14145
21
-2.22068
0
LINE
8
BLACK
6
CONTINUOUS
10
3.14145
20
-2.22068
11
3.16711
21
-2.20235
0
LINE
8
BLACK
6
CONTINUOUS
10
3.16711
20
-2.20235
11
3.1936
21
-2.18524
0
LINE
8
BLACK
6
CONTINUOUS
10
3.1936
20
-2.18524
11
3.22087
21
-2.1694
0
LINE
8
BLACK
6
CONTINUOUS
10
3.22087
20
-2.1694
11
3.24886
21
-2.15486
0
LINE
8
BLACK
6
CONTINUOUS
10
3.24886
20
-2.15486
11
3.2775
21
-2.14166
0
LINE
8
BLACK
6
CONTINUOUS
10
3.2775
20
-2.14166
11
3.30673
21
-2.12982
0
LINE
8
BLACK
6
CONTINUOUS
10
3.30673
20
-2.12982
11
3.33648
21
-2.11937
0
LINE
8
BLACK
6
CONTINUOUS
10
3.33648
20
-2.11937
11
3.3667
21
-2.11034
0
LINE
8
BLACK
6
CONTINUOUS
10
3.3667
20
-2.11034
11
3.39731
21
-2.10273
0
LINE
8
BLACK
6
CONTINUOUS
10
3.39731
20
-2.10273
11
3.42824
21
-2.09658
0
LINE
8
BLACK
6
CONTINUOUS
10
3.42824
20
-2.09658
11
3.45942
21
-2.09189
0
LINE
8
BLACK
6
CONTINUOUS
10
3.45942
20
-2.09189
11
3.4908
21
-2.08868
0
LINE
8
BLACK
6
CONTINUOUS
10
3.4908
20
-2.08868
11
3.52228
21
-2.08694
0
LINE
8
BLACK
6
CONTINUOUS
10
3.52228
20
-2.08694
11
3.55382
21
-2.0867
0
LINE
8
BLACK
6
CONTINUOUS
10
3.55382
20
-2.0867
11
3.58533
21
-2.08793
0
LINE
8
BLACK
6
CONTINUOUS
10
3.58533
20
-2.08793
11
3.61675
21
-2.09066
0
LINE
8
BLACK
6
CONTINUOUS
10
3.61675
20
-2.09066
11
3.64801
21
-2.09485
0
LINE
8
BLACK
6
CONTINUOUS
10
3.64801
20
-2.09485
11
3.67903
21
-2.10052
0
LINE
8
BLACK
6
CONTINUOUS
10
3.67903
20
-2.10052
11
3.70975
21
-2.10764
0
LINE
8
BLACK
6
CONTINUOUS
10
3.70975
20
-2.10764
11
3.74011
21
-2.1162
0
LINE
8
BLACK
6
CONTINUOUS
10
3.74011
20
-2.1162
11
3.77002
21
-2.12618
0
LINE
8
BLACK
6
CONTINUOUS
10
3.77002
20
-2.12618
11
3.79943
21
-2.13756
0
LINE
8
BLACK
6
CONTINUOUS
10
3.79943
20
-2.13756
11
3.82828
21
-2.15031
0
LINE
8
BLACK
6
CONTINUOUS
10
3.82828
20
-2.15031
11
3.85649
21
-2.16441
0
LINE
8
BLACK
6
CONTINUOUS
10
3.85649
20
-2.16441
11
3.884
21
-2.17982
0
LINE
8
BLACK
6
CONTINUOUS
10
3.884
20
-2.17982
11
3.91076
21
-2.19651
0
LINE
8
BLACK
6
CONTINUOUS
10
3.91076
20
-2.19651
11
3.93671
21
-2.21444
0
LINE
8
BLACK
6
CONTINUOUS
10
3.93671
20
-2.21444
11
3.96178
21
-2.23357
0
LINE
8
BLACK
6
CONTINUOUS
10
3.96178
20
-2.23357
11
3.98592
21
-2.25386
0
LINE
8
BLACK
6
CONTINUOUS
10
3.98592
20
-2.25386
11
4.00908
21
-2.27527
0
LINE
8
BLACK
6
CONTINUOUS
10
4.00908
20
-2.27527
11
4.0312
21
-2.29774
0
LINE
8
BLACK
6
CONTINUOUS
10
4.0312
20
-2.29774
11
4.05224
21
-2.32124
0
LINE
8
BLACK
6
CONTINUOUS
10
4.05224
20
-2.32124
11
4.07215
21
-2.34569
0
LINE
8
BLACK
6
CONTINUOUS
10
4.07215
20
-2.34569
11
4.09089
21
-2.37106
0
LINE
8
BLACK
6
CONTINUOUS
10
4.09089
20
-2.37106
11
4.10841
21
-2.39728
0
LINE
8
BLACK
6
CONTINUOUS
10
4.10841
20
-2.39728
11
4.12467
21
-2.4243
0
LINE
8
BLACK
6
CONTINUOUS
10
4.12467
20
-2.4243
11
4.13965
21
-2.45205
0
LINE
8
BLACK
6
CONTINUOUS
10
4.13965
20
-2.45205
11
4.1533
21
-2.48048
0
LINE
8
BLACK
6
CONTINUOUS
10
4.1533
20
-2.48048
11
4.1656
21
-2.50952
0
LINE
8
BLACK
6
CONTINUOUS
10
4.1656
20
-2.50952
11
4.17651
21
-2.53911
0
LINE
8
BLACK
6
CONTINUOUS
10
4.17651
20
-2.53911
11
4.18602
21
-2.56918
0
LINE
8
BLACK
6
CONTINUOUS
10
4.18602
20
-2.56918
11
4.19411
21
-2.59966
0
LINE
8
BLACK
6
CONTINUOUS
10
4.19411
20
-2.59966
11
4.20074
21
-2.63049
0
LINE
8
BLACK
6
CONTINUOUS
10
4.20074
20
-2.63049
11
4.20592
21
-2.6616
0
LINE
8
BLACK
6
CONTINUOUS
10
4.20592
20
-2.6616
11
4.20963
21
-2.69292
0
LINE
8
BLACK
6
CONTINUOUS
10
4.20963
20
-2.69292
11
4.21186
21
-2.72438
0
LINE
8
BLACK
6
CONTINUOUS
10
4.21186
20
-2.72438
11
4.2126
21
-2.75591
0
LINE
8
BLACK
6
CONTINUOUS
10
4.2126
20
-2.75591
11
4.21252
21
-2.76642
0
LINE
8
BLACK
6
CONTINUOUS
10
4.21252
20
-2.76642
11
4.21128
21
-2.79793
0
LINE
8
BLACK
6
CONTINUOUS
10
4.21128
20
-2.79793
11
4.20856
21
-2.82935
0
LINE
8
BLACK
6
CONTINUOUS
10
4.20856
20
-2.82935
11
4.20436
21
-2.86061
0
LINE
8
BLACK
6
CONTINUOUS
10
4.20436
20
-2.86061
11
4.19869
21
-2.89163
0
LINE
8
BLACK
6
CONTINUOUS
10
4.19869
20
-2.89163
11
4.19157
21
-2.92235
0
LINE
8
BLACK
6
CONTINUOUS
10
4.19157
20
-2.92235
11
4.18301
21
-2.9527
0
LINE
8
BLACK
6
CONTINUOUS
10
4.18301
20
-2.9527
11
4.17303
21
-2.98262
0
LINE
8
BLACK
6
CONTINUOUS
10
4.17303
20
-2.98262
11
4.16165
21
-3.01203
0
LINE
8
BLACK
6
CONTINUOUS
10
4.16165
20
-3.01203
11
4.1489
21
-3.04088
0
LINE
8
BLACK
6
CONTINUOUS
10
4.1489
20
-3.04088
11
4.1348
21
-3.06909
0
LINE
8
BLACK
6
CONTINUOUS
10
4.1348
20
-3.06909
11
4.11939
21
-3.0966
0
LINE
8
BLACK
6
CONTINUOUS
10
4.11939
20
-3.0966
11
4.10271
21
-3.12336
0
LINE
8
BLACK
6
CONTINUOUS
10
4.10271
20
-3.12336
11
4.08478
21
-3.14931
0
LINE
8
BLACK
6
CONTINUOUS
10
4.08478
20
-3.14931
11
4.06564
21
-3.17437
0
LINE
8
BLACK
6
CONTINUOUS
10
4.06564
20
-3.17437
11
4.04535
21
-3.19852
0
LINE
8
BLACK
6
CONTINUOUS
10
4.04535
20
-3.19852
11
4.02394
21
-3.22167
0
LINE
8
BLACK
6
CONTINUOUS
10
4.02394
20
-3.22167
11
4.00147
21
-3.2438
0
LINE
8
BLACK
6
CONTINUOUS
10
4.00147
20
-3.2438
11
3.97798
21
-3.26484
0
LINE
8
BLACK
6
CONTINUOUS
10
3.97798
20
-3.26484
11
3.95352
21
-3.28475
0
LINE
8
BLACK
6
CONTINUOUS
10
3.95352
20
-3.28475
11
3.92815
21
-3.30349
0
LINE
8
BLACK
6
CONTINUOUS
10
3.92815
20
-3.30349
11
3.90193
21
-3.32101
0
LINE
8
BLACK
6
CONTINUOUS
10
3.90193
20
-3.32101
11
3.87491
21
-3.33727
0
LINE
8
BLACK
6
CONTINUOUS
10
3.87491
20
-3.33727
11
3.84716
21
-3.35225
0
LINE
8
BLACK
6
CONTINUOUS
10
3.84716
20
-3.35225
11
3.81873
21
-3.3659
0
LINE
8
BLACK
6
CONTINUOUS
10
3.81873
20
-3.3659
11
3.78969
21
-3.3782
0
LINE
8
BLACK
6
CONTINUOUS
10
3.78969
20
-3.3782
11
3.7601
21
-3.38911
0
LINE
8
BLACK
6
CONTINUOUS
10
3.7601
20
-3.38911
11
3.73003
21
-3.39862
0
LINE
8
BLACK
6
CONTINUOUS
10
3.73003
20
-3.39862
11
3.69955
21
-3.4067
0
LINE
8
BLACK
6
CONTINUOUS
10
3.69955
20
-3.4067
11
3.66872
21
-3.41334
0
LINE
8
BLACK
6
CONTINUOUS
10
3.66872
20
-3.41334
11
3.63761
21
-3.41852
0
LINE
8
BLACK
6
CONTINUOUS
10
3.63761
20
-3.41852
11
3.60629
21
-3.42223
0
LINE
8
BLACK
6
CONTINUOUS
10
3.60629
20
-3.42223
11
3.57484
21
-3.42445
0
LINE
8
BLACK
6
CONTINUOUS
10
3.57484
20
-3.42445
11
3.54331
21
-3.4252
0
LINE
8
BLACK
6
CONTINUOUS
10
3.54331
20
-3.4252
11
3.51178
21
-3.42445
0
LINE
8
BLACK
6
CONTINUOUS
10
3.51178
20
-3.42445
11
3.48032
21
-3.42223
0
LINE
8
BLACK
6
CONTINUOUS
10
3.48032
20
-3.42223
11
3.449
21
-3.41852
0
LINE
8
BLACK
6
CONTINUOUS
10
3.449
20
-3.41852
11
3.41789
21
-3.41334
0
LINE
8
BLACK
6
CONTINUOUS
10
3.41789
20
-3.41334
11
3.38706
21
-3.4067
0
LINE
8
BLACK
6
CONTINUOUS
10
3.38706
20
-3.4067
11
3.35658
21
-3.39862
0
LINE
8
BLACK
6
CONTINUOUS
10
3.35658
20
-3.39862
11
3.32651
21
-3.38911
0
LINE
8
BLACK
6
CONTINUOUS
10
3.32651
20
-3.38911
11
3.29692
21
-3.3782
0
LINE
8
BLACK
6
CONTINUOUS
10
3.29692
20
-3.3782
11
3.26788
21
-3.3659
0
LINE
8
BLACK
6
CONTINUOUS
10
3.26788
20
-3.3659
11
3.23946
21
-3.35225
0
LINE
8
BLACK
6
CONTINUOUS
10
3.23946
20
-3.35225
11
3.2117
21
-3.33727
0
LINE
8
BLACK
6
CONTINUOUS
10
3.2117
20
-3.33727
11
3.18468
21
-3.32101
0
LINE
8
BLACK
6
CONTINUOUS
10
3.18468
20
-3.32101
11
3.15846
21
-3.30349
0
LINE
8
BLACK
6
CONTINUOUS
10
3.15846
20
-3.30349
11
3.13309
21
-3.28475
0
LINE
8
BLACK
6
CONTINUOUS
10
3.13309
20
-3.28475
11
3.10864
21
-3.26484
0
LINE
8
BLACK
6
CONTINUOUS
10
3.10864
20
-3.26484
11
3.08515
21
-3.2438
0
LINE
8
BLACK
6
CONTINUOUS
10
3.08515
20
-3.2438
11
3.06267
21
-3.22167
0
LINE
8
BLACK
6
CONTINUOUS
10
3.06267
20
-3.22167
11
3.04126
21
-3.19852
0
LINE
8
BLACK
6
CONTINUOUS
10
3.04126
20
-3.19852
11
3.02097
21
-3.17437
0
LINE
8
BLACK
6
CONTINUOUS
10
3.02097
20
-3.17437
11
3.00184
21
-3.14931
0
LINE
8
BLACK
6
CONTINUOUS
10
3.00184
20
-3.14931
11
2.98391
21
-3.12336
0
LINE
8
BLACK
6
CONTINUOUS
10
2.98391
20
-3.12336
11
2.96722
21
-3.0966
0
LINE
8
BLACK
6
CONTINUOUS
10
2.96722
20
-3.0966
11
2.95181
21
-3.06909
0
LINE
8
BLACK
6
CONTINUOUS
10
2.95181
20
-3.06909
11
2.93771
21
-3.04088
0
LINE
8
BLACK
6
CONTINUOUS
10
2.93771
20
-3.04088
11
2.92496
21
-3.01203
0
LINE
8
BLACK
6
CONTINUOUS
10
2.92496
20
-3.01203
11
2.91358
21
-2.98262
0
LINE
8
BLACK
6
CONTINUOUS
10
2.91358
20
-2.98262
11
2.9036
21
-2.9527
0
LINE
8
BLACK
6
CONTINUOUS
10
2.9036
20
-2.9527
11
2.89504
21
-2.92235
0
LINE
8
BLACK
6
CONTINUOUS
10
2.89504
20
-2.92235
11
2.88792
21
-2.89163
0
LINE
8
BLACK
6
CONTINUOUS
10
2.88792
20
-2.89163
11
2.88226
21
-2.86061
0
LINE
8
BLACK
6
CONTINUOUS
10
2.88226
20
-2.86061
11
2.87806
21
-2.82935
0
LINE
8
BLACK
6
CONTINUOUS
10
2.87806
20
-2.82935
11
2.87534
21
-2.79793
0
LINE
8
BLACK
6
CONTINUOUS
10
2.87534
20
-2.79793
11
2.8741
21
-2.76642
0
LINE
8
BLACK
6
CONTINUOUS
10
2.8741
20
-2.76642
11
2.87425
21
-2.747
0
LINE
8
BLACK
6
CONTINUOUS
10
2.87425
20
-2.747
11
2.87435
21
-2.73488
0
LINE
8
BLACK
6
CONTINUOUS
10
2.87435
20
-2.73488
11
2.87608
21
-2.70339
0
LINE
8
BLACK
6
CONTINUOUS
10
2.90755
20
-2.80929
11
2.91092
21
-2.84028
0
LINE
8
BLACK
6
CONTINUOUS
10
2.91092
20
-2.84028
11
2.91579
21
-2.87108
0
LINE
8
BLACK
6
CONTINUOUS
10
2.91579
20
-2.87108
11
2.92217
21
-2.90159
0
LINE
8
BLACK
6
CONTINUOUS
10
2.92217
20
-2.90159
11
2.93003
21
-2.93176
0
LINE
8
BLACK
6
CONTINUOUS
10
2.93003
20
-2.93176
11
2.93935
21
-2.96151
0
LINE
8
BLACK
6
CONTINUOUS
10
2.93935
20
-2.96151
11
2.95012
21
-2.99077
0
LINE
8
BLACK
6
CONTINUOUS
10
2.95012
20
-2.99077
11
2.9623
21
-3.01946
0
LINE
8
BLACK
6
CONTINUOUS
10
2.9623
20
-3.01946
11
2.97587
21
-3.04753
0
LINE
8
BLACK
6
CONTINUOUS
10
2.97587
20
-3.04753
11
2.99079
21
-3.0749
0
LINE
8
BLACK
6
CONTINUOUS
10
2.99079
20
-3.0749
11
3.00703
21
-3.10151
0
LINE
8
BLACK
6
CONTINUOUS
10
3.00703
20
-3.10151
11
3.02455
21
-3.1273
0
LINE
8
BLACK
6
CONTINUOUS
10
3.02455
20
-3.1273
11
3.04332
21
-3.15219
0
LINE
8
BLACK
6
CONTINUOUS
10
3.04332
20
-3.15219
11
3.06327
21
-3.17615
0
LINE
8
BLACK
6
CONTINUOUS
10
3.06327
20
-3.17615
11
3.08437
21
-3.19909
0
LINE
8
BLACK
6
CONTINUOUS
10
3.08437
20
-3.19909
11
3.10657
21
-3.22098
0
LINE
8
BLACK
6
CONTINUOUS
10
3.10657
20
-3.22098
11
3.12981
21
-3.24176
0
LINE
8
BLACK
6
CONTINUOUS
10
3.12981
20
-3.24176
11
3.15404
21
-3.26138
0
LINE
8
BLACK
6
CONTINUOUS
10
3.15404
20
-3.26138
11
3.1792
21
-3.27979
0
LINE
8
BLACK
6
CONTINUOUS
10
3.1792
20
-3.27979
11
3.20522
21
-3.29695
0
LINE
8
BLACK
6
CONTINUOUS
10
3.20522
20
-3.29695
11
3.23206
21
-3.31282
0
LINE
8
BLACK
6
CONTINUOUS
10
3.23206
20
-3.31282
11
3.25963
21
-3.32736
0
LINE
8
BLACK
6
CONTINUOUS
10
3.25963
20
-3.32736
11
3.28789
21
-3.34054
0
LINE
8
BLACK
6
CONTINUOUS
10
3.28789
20
-3.34054
11
3.31675
21
-3.35232
0
LINE
8
BLACK
6
CONTINUOUS
10
3.31675
20
-3.35232
11
3.34616
21
-3.36267
0
LINE
8
BLACK
6
CONTINUOUS
10
3.34616
20
-3.36267
11
3.37603
21
-3.37158
0
LINE
8
BLACK
6
CONTINUOUS
10
3.37603
20
-3.37158
11
3.40631
21
-3.37902
0
LINE
8
BLACK
6
CONTINUOUS
10
3.40631
20
-3.37902
11
3.43691
21
-3.38496
0
LINE
8
BLACK
6
CONTINUOUS
10
3.43691
20
-3.38496
11
3.46777
21
-3.38941
0
LINE
8
BLACK
6
CONTINUOUS
10
3.46777
20
-3.38941
11
3.4988
21
-3.39234
0
LINE
8
BLACK
6
CONTINUOUS
10
3.4988
20
-3.39234
11
3.52995
21
-3.39376
0
LINE
8
BLACK
6
CONTINUOUS
10
3.52995
20
-3.39376
11
3.56112
21
-3.39365
0
LINE
8
BLACK
6
CONTINUOUS
10
3.56112
20
-3.39365
11
3.59225
21
-3.39202
0
LINE
8
BLACK
6
CONTINUOUS
10
3.59225
20
-3.39202
11
3.62327
21
-3.38887
0
LINE
8
BLACK
6
CONTINUOUS
10
3.62327
20
-3.38887
11
3.65409
21
-3.38421
0
LINE
8
BLACK
6
CONTINUOUS
10
3.65409
20
-3.38421
11
3.68465
21
-3.37804
0
LINE
8
BLACK
6
CONTINUOUS
10
3.68465
20
-3.37804
11
3.71488
21
-3.3704
0
LINE
8
BLACK
6
CONTINUOUS
10
3.71488
20
-3.3704
11
3.74469
21
-3.36128
0
LINE
8
BLACK
6
CONTINUOUS
10
3.74469
20
-3.36128
11
3.77402
21
-3.35072
0
LINE
8
BLACK
6
CONTINUOUS
10
3.77402
20
-3.35072
11
3.8028
21
-3.33874
0
LINE
8
BLACK
6
CONTINUOUS
10
3.8028
20
-3.33874
11
3.83096
21
-3.32537
0
LINE
8
BLACK
6
CONTINUOUS
10
3.83096
20
-3.32537
11
3.85844
21
-3.31064
0
LINE
8
BLACK
6
CONTINUOUS
10
3.85844
20
-3.31064
11
3.88516
21
-3.29458
0
LINE
8
BLACK
6
CONTINUOUS
10
3.88516
20
-3.29458
11
3.91107
21
-3.27724
0
LINE
8
BLACK
6
CONTINUOUS
10
3.91107
20
-3.27724
11
3.9361
21
-3.25865
0
LINE
8
BLACK
6
CONTINUOUS
10
3.9361
20
-3.25865
11
3.96019
21
-3.23886
0
LINE
8
BLACK
6
CONTINUOUS
10
3.96019
20
-3.23886
11
3.98328
21
-3.21792
0
LINE
8
BLACK
6
CONTINUOUS
10
3.98328
20
-3.21792
11
4.00532
21
-3.19588
0
LINE
8
BLACK
6
CONTINUOUS
10
4.00532
20
-3.19588
11
4.02627
21
-3.17278
0
LINE
8
BLACK
6
CONTINUOUS
10
4.02627
20
-3.17278
11
4.04605
21
-3.14869
0
LINE
8
BLACK
6
CONTINUOUS
10
4.04605
20
-3.14869
11
4.06464
21
-3.12367
0
LINE
8
BLACK
6
CONTINUOUS
10
4.06464
20
-3.12367
11
4.08198
21
-3.09776
0
LINE
8
BLACK
6
CONTINUOUS
10
4.08198
20
-3.09776
11
4.09804
21
-3.07104
0
LINE
8
BLACK
6
CONTINUOUS
10
4.09804
20
-3.07104
11
4.11277
21
-3.04356
0
LINE
8
BLACK
6
CONTINUOUS
10
4.11277
20
-3.04356
11
4.12614
21
-3.0154
0
LINE
8
BLACK
6
CONTINUOUS
10
4.12614
20
-3.0154
11
4.13812
21
-2.98662
0
LINE
8
BLACK
6
CONTINUOUS
10
4.13812
20
-2.98662
11
4.14868
21
-2.95729
0
LINE
8
BLACK
6
CONTINUOUS
10
4.14868
20
-2.95729
11
4.1578
21
-2.92747
0
LINE
8
BLACK
6
CONTINUOUS
10
4.1578
20
-2.92747
11
4.16545
21
-2.89725
0
LINE
8
BLACK
6
CONTINUOUS
10
4.16545
20
-2.89725
11
4.17161
21
-2.86669
0
LINE
8
BLACK
6
CONTINUOUS
10
4.17161
20
-2.86669
11
4.17627
21
-2.83587
0
LINE
8
BLACK
6
CONTINUOUS
10
4.17627
20
-2.83587
11
4.17942
21
-2.80485
0
LINE
8
BLACK
6
CONTINUOUS
10
4.17942
20
-2.80485
11
4.18105
21
-2.77372
0
LINE
8
BLACK
6
CONTINUOUS
10
4.18105
20
-2.77372
11
4.1813
21
-2.75591
0
LINE
8
BLACK
6
CONTINUOUS
10
4.1813
20
-2.75591
11
4.18054
21
-2.72474
0
LINE
8
BLACK
6
CONTINUOUS
10
4.18054
20
-2.72474
11
4.17826
21
-2.69365
0
LINE
8
BLACK
6
CONTINUOUS
10
4.17826
20
-2.69365
11
4.17446
21
-2.66271
0
LINE
8
BLACK
6
CONTINUOUS
10
4.17446
20
-2.66271
11
4.16915
21
-2.63199
0
LINE
8
BLACK
6
CONTINUOUS
10
4.16915
20
-2.63199
11
4.16235
21
-2.60156
0
LINE
8
BLACK
6
CONTINUOUS
10
4.16235
20
-2.60156
11
4.15407
21
-2.57151
0
LINE
8
BLACK
6
CONTINUOUS
10
4.15407
20
-2.57151
11
4.14433
21
-2.54189
0
LINE
8
BLACK
6
CONTINUOUS
10
4.14433
20
-2.54189
11
4.13316
21
-2.51279
0
LINE
8
BLACK
6
CONTINUOUS
10
4.13316
20
-2.51279
11
4.12058
21
-2.48426
0
LINE
8
BLACK
6
CONTINUOUS
10
4.12058
20
-2.48426
11
4.10662
21
-2.45639
0
LINE
8
BLACK
6
CONTINUOUS
10
4.10662
20
-2.45639
11
4.09132
21
-2.42923
0
LINE
8
BLACK
6
CONTINUOUS
10
4.09132
20
-2.42923
11
4.07471
21
-2.40285
0
LINE
8
BLACK
6
CONTINUOUS
10
4.07471
20
-2.40285
11
4.05682
21
-2.37731
0
LINE
8
BLACK
6
CONTINUOUS
10
4.05682
20
-2.37731
11
4.03772
21
-2.35267
0
LINE
8
BLACK
6
CONTINUOUS
10
4.03772
20
-2.35267
11
4.01743
21
-2.329
0
LINE
8
BLACK
6
CONTINUOUS
10
4.01743
20
-2.329
11
3.99601
21
-2.30635
0
LINE
8
BLACK
6
CONTINUOUS
10
3.99601
20
-2.30635
11
3.97351
21
-2.28478
0
LINE
8
BLACK
6
CONTINUOUS
10
3.97351
20
-2.28478
11
3.94998
21
-2.26432
0
LINE
8
BLACK
6
CONTINUOUS
10
3.94998
20
-2.26432
11
3.92548
21
-2.24504
0
LINE
8
BLACK
6
CONTINUOUS
10
3.92548
20
-2.24504
11
3.90007
21
-2.22698
0
LINE
8
BLACK
6
CONTINUOUS
10
3.90007
20
-2.22698
11
3.8738
21
-2.21019
0
LINE
8
BLACK
6
CONTINUOUS
10
3.8738
20
-2.21019
11
3.84675
21
-2.1947
0
LINE
8
BLACK
6
CONTINUOUS
10
3.84675
20
-2.1947
11
3.81898
21
-2.18054
0
LINE
8
BLACK
6
CONTINUOUS
10
3.81898
20
-2.18054
11
3.79054
21
-2.16776
0
LINE
8
BLACK
6
CONTINUOUS
10
3.79054
20
-2.16776
11
3.76151
21
-2.15639
0
LINE
8
BLACK
6
CONTINUOUS
10
3.76151
20
-2.15639
11
3.73197
21
-2.14644
0
LINE
8
BLACK
6
CONTINUOUS
10
3.73197
20
-2.14644
11
3.70197
21
-2.13796
0
LINE
8
BLACK
6
CONTINUOUS
10
3.70197
20
-2.13796
11
3.67159
21
-2.13094
0
LINE
8
BLACK
6
CONTINUOUS
10
3.67159
20
-2.13094
11
3.64091
21
-2.12542
0
LINE
8
BLACK
6
CONTINUOUS
10
3.64091
20
-2.12542
11
3.61
21
-2.12141
0
LINE
8
BLACK
6
CONTINUOUS
10
3.61
20
-2.12141
11
3.57892
21
-2.11891
0
LINE
8
BLACK
6
CONTINUOUS
10
3.57892
20
-2.11891
11
3.54776
21
-2.11793
0
LINE
8
BLACK
6
CONTINUOUS
10
3.54776
20
-2.11793
11
3.51659
21
-2.11847
0
LINE
8
BLACK
6
CONTINUOUS
10
3.51659
20
-2.11847
11
3.48548
21
-2.12054
0
LINE
8
BLACK
6
CONTINUOUS
10
3.48548
20
-2.12054
11
3.45452
21
-2.12412
0
LINE
8
BLACK
6
CONTINUOUS
10
3.45452
20
-2.12412
11
3.42376
21
-2.12921
0
LINE
8
BLACK
6
CONTINUOUS
10
3.42376
20
-2.12921
11
3.39329
21
-2.1358
0
LINE
8
BLACK
6
CONTINUOUS
10
3.39329
20
-2.1358
11
3.36318
21
-2.14387
0
LINE
8
BLACK
6
CONTINUOUS
10
3.36318
20
-2.14387
11
3.33349
21
-2.1534
0
LINE
8
BLACK
6
CONTINUOUS
10
3.33349
20
-2.1534
11
3.30431
21
-2.16437
0
LINE
8
BLACK
6
CONTINUOUS
10
3.30431
20
-2.16437
11
3.2757
21
-2.17675
0
LINE
8
BLACK
6
CONTINUOUS
10
3.2757
20
-2.17675
11
3.24773
21
-2.19051
0
LINE
8
BLACK
6
CONTINUOUS
10
3.24773
20
-2.19051
11
3.22046
21
-2.20563
0
LINE
8
BLACK
6
CONTINUOUS
10
3.22046
20
-2.20563
11
3.19397
21
-2.22206
0
LINE
8
BLACK
6
CONTINUOUS
10
3.19397
20
-2.22206
11
3.1683
21
-2.23976
0
LINE
8
BLACK
6
CONTINUOUS
10
3.1683
20
-2.23976
11
3.14354
21
-2.25869
0
LINE
8
BLACK
6
CONTINUOUS
10
3.14354
20
-2.25869
11
3.11973
21
-2.27882
0
LINE
8
BLACK
6
CONTINUOUS
10
3.11973
20
-2.27882
11
3.09693
21
-2.30008
0
LINE
8
BLACK
6
CONTINUOUS
10
3.09693
20
-2.30008
11
3.07519
21
-2.32243
0
LINE
8
BLACK
6
CONTINUOUS
10
3.07519
20
-2.32243
11
3.05458
21
-2.34581
0
LINE
8
BLACK
6
CONTINUOUS
10
3.05458
20
-2.34581
11
3.03513
21
-2.37018
0
LINE
8
BLACK
6
CONTINUOUS
10
3.03513
20
-2.37018
11
3.01689
21
-2.39546
0
LINE
8
BLACK
6
CONTINUOUS
10
3.01689
20
-2.39546
11
2.99991
21
-2.42161
0
LINE
8
BLACK
6
CONTINUOUS
10
2.99991
20
-2.42161
11
2.98423
21
-2.44855
0
LINE
8
BLACK
6
CONTINUOUS
10
2.98423
20
-2.44855
11
2.96988
21
-2.47623
0
LINE
8
BLACK
6
CONTINUOUS
10
2.96988
20
-2.47623
11
2.9569
21
-2.50457
0
LINE
8
BLACK
6
CONTINUOUS
10
2.9569
20
-2.50457
11
2.94533
21
-2.53352
0
LINE
8
BLACK
6
CONTINUOUS
10
2.94533
20
-2.53352
11
2.93518
21
-2.563
0
LINE
8
BLACK
6
CONTINUOUS
10
2.93518
20
-2.563
11
2.92648
21
-2.59293
0
LINE
8
BLACK
6
CONTINUOUS
10
2.92648
20
-2.59293
11
2.91926
21
-2.62326
0
LINE
8
BLACK
6
CONTINUOUS
10
2.91926
20
-2.62326
11
2.91352
21
-2.6539
0
LINE
8
BLACK
6
CONTINUOUS
10
2.91352
20
-2.6539
11
2.90929
21
-2.68479
0
LINE
8
BLACK
6
CONTINUOUS
10
2.90929
20
-2.68479
11
2.90657
21
-2.71585
0
LINE
8
BLACK
6
CONTINUOUS
10
2.90657
20
-2.71585
11
2.90538
21
-2.747
0
LINE
8
BLACK
6
CONTINUOUS
10
2.90538
20
-2.747
11
2.9057
21
-2.77817
0
LINE
8
BLACK
6
CONTINUOUS
10
2.9057
20
-2.77817
11
2.90755
21
-2.80929
  0
ENDSEC
  0
EOF
